<svg width="1980" height="1024" viewBox="0 0 1980 1024" fill="none" xmlns="http://www.w3.org/2000/svg">
<g clip-path="url(#clip0_410_2)">
<path d="M0 0H1980V1024H0V0Z" fill="#132E65"/>
<path d="M2041.77 679.66L1912.32 669.72" stroke="#132E65" stroke-width="1.5"/>
<path d="M2041.77 679.66L1895.86 839.07" stroke="#132E65" stroke-width="1.5"/>
<path d="M2041.77 679.66L1785.05 667.58" stroke="#132E65" stroke-width="1.5"/>
<path d="M2041.77 679.66L1746.43 815.24" stroke="#132E65" stroke-width="1.5"/>
<path d="M2068.95 788.29L1895.86 839.07" stroke="#132E65" stroke-width="1.5"/>
<path d="M2068.95 788.29L1912.32 669.72" stroke="#132E65" stroke-width="1.5"/>
<path d="M2068.95 788.29L1891.18 972.26" stroke="#132E65" stroke-width="1.5"/>
<path d="M2028.99 1113.03L1891.18 972.26" stroke="#132E65" stroke-width="1.5"/>
<path d="M2028.99 1113.03L1895.86 839.07" stroke="#132E65" stroke-width="1.5"/>
<path d="M2028.99 1113.03L1743.29 973.51" stroke="#132E65" stroke-width="1.5"/>
<path d="M1912.32 669.72L1785.05 667.58" stroke="#132E65" stroke-width="1.5"/>
<path d="M1912.32 669.72L1895.86 839.07" stroke="#132E65" stroke-width="1.5"/>
<path d="M1912.32 669.72L1746.43 815.24" stroke="#132E65" stroke-width="1.5"/>
<path d="M1912.32 669.72L1629.62 681.6" stroke="#132E65" stroke-width="1.5"/>
<path d="M1895.86 839.07L1891.18 972.26" stroke="#132E65" stroke-width="1.5"/>
<path d="M1895.86 839.07L1746.43 815.24" stroke="#132E65" stroke-width="1.5"/>
<path d="M1895.86 839.07L1743.29 973.51" stroke="#132E65" stroke-width="1.5"/>
<path d="M1891.18 972.26L1743.29 973.51" stroke="#132E65" stroke-width="1.5"/>
<path d="M1891.18 972.26L1930.46 1124.74" stroke="#132E65" stroke-width="1.5"/>
<path d="M1930.46 1124.74L1743.29 973.51" stroke="#132E65" stroke-width="1.5"/>
<path d="M1930.46 1124.74L1895.86 839.07" stroke="#132E65" stroke-width="1.5"/>
<path d="M1785.05 667.58L1746.43 815.24" stroke="#132E65" stroke-width="1.5"/>
<path d="M1785.05 667.58L1629.62 681.6" stroke="#132E65" stroke-width="1.5"/>
<path d="M1746.43 815.24L1591.56 800.04" stroke="#132E65" stroke-width="1.5"/>
<path d="M1746.43 815.24L1743.29 973.51" stroke="#132E65" stroke-width="1.5"/>
<path d="M1743.29 973.51L1615.83 979.12" stroke="#132E65" stroke-width="1.5"/>
<path d="M1743.29 973.51L1759.54 1147.19" stroke="#132E65" stroke-width="1.5"/>
<path d="M1759.54 1147.19L1891.18 972.26" stroke="#132E65" stroke-width="1.5"/>
<path d="M1629.62 681.6L1591.56 800.04" stroke="#132E65" stroke-width="1.5"/>
<path d="M1629.62 681.6L1478.43 650.39" stroke="#132E65" stroke-width="1.5"/>
<path d="M1629.62 681.6L1746.43 815.24" stroke="#132E65" stroke-width="1.5"/>
<path d="M1591.56 800.04L1461.08 821.85" stroke="#132E65" stroke-width="1.5"/>
<path d="M1591.56 800.04L1615.83 979.12" stroke="#132E65" stroke-width="1.5"/>
<path d="M1615.83 979.12L1585.89 1100.2" stroke="#132E65" stroke-width="1.5"/>
<path d="M1615.83 979.12L1475.45 973.69" stroke="#132E65" stroke-width="1.5"/>
<path d="M1585.89 1100.2L1475.45 973.69" stroke="#132E65" stroke-width="1.5"/>
<path d="M1585.89 1100.2L1743.29 973.51" stroke="#132E65" stroke-width="1.5"/>
<path d="M1478.43 650.39L1461.08 821.85" stroke="#132E65" stroke-width="1.5"/>
<path d="M1461.08 821.85L1475.45 973.69" stroke="#132E65" stroke-width="1.5"/>
<path d="M1467.92 1137.09L1475.45 973.69" stroke="#132E65" stroke-width="1.5"/>
<path d="M1467.92 1137.09L1615.83 979.12" stroke="#132E65" stroke-width="1.5"/>
<path d="M1467.92 1137.09L1293.17 958.98" stroke="#132E65" stroke-width="1.5"/>
<path d="M1281.28 650.17L1183.64 556.3" stroke="#132E65" stroke-width="1.5"/>
<path d="M1281.28 650.17L1139.42 691.3" stroke="#132E65" stroke-width="1.5"/>
<path d="M1281.28 650.17L1283.19 828.49" stroke="#132E65" stroke-width="1.5"/>
<path d="M1281.28 650.17L1478.43 650.39" stroke="#132E65" stroke-width="1.5"/>
<path d="M1281.28 650.17L1461.08 821.85" stroke="#132E65" stroke-width="1.5"/>
<path d="M1283.19 828.49L1293.17 958.98" stroke="#132E65" stroke-width="1.5"/>
<path d="M1283.19 828.49L1128.24 861.73" stroke="#132E65" stroke-width="1.5"/>
<path d="M1283.19 828.49L1461.08 821.85" stroke="#132E65" stroke-width="1.5"/>
<path d="M1283.19 828.49L1139.42 691.3" stroke="#132E65" stroke-width="1.5"/>
<path d="M1293.17 958.98L1154.65 1002.59" stroke="#132E65" stroke-width="1.5"/>
<path d="M1293.17 958.98L1475.45 973.69" stroke="#132E65" stroke-width="1.5"/>
<path d="M1293.17 958.98L1330.19 1141.5" stroke="#132E65" stroke-width="1.5"/>
<path d="M1293.17 958.98L1128.24 861.73" stroke="#132E65" stroke-width="1.5"/>
<path d="M1293.17 958.98L1461.08 821.85" stroke="#132E65" stroke-width="1.5"/>
<path d="M1330.19 1141.5L1475.45 973.69" stroke="#132E65" stroke-width="1.5"/>
<path d="M1183.64 556.3L1139.42 691.3" stroke="#132E65" stroke-width="1.5"/>
<path d="M1183.64 556.3L988.65 523.77" stroke="#132E65" stroke-width="1.5"/>
<path d="M1183.64 556.3L971.1 708.64" stroke="#132E65" stroke-width="1.5"/>
<path d="M1139.42 691.3L971.1 708.64" stroke="#132E65" stroke-width="1.5"/>
<path d="M1139.42 691.3L1128.24 861.73" stroke="#132E65" stroke-width="1.5"/>
<path d="M1139.42 691.3L1006.13 813.98" stroke="#132E65" stroke-width="1.5"/>
<path d="M1128.24 861.73L1038.37 942.58" stroke="#132E65" stroke-width="1.5"/>
<path d="M1128.24 861.73L1006.13 813.98" stroke="#132E65" stroke-width="1.5"/>
<path d="M1128.24 861.73L1154.65 1002.59" stroke="#132E65" stroke-width="1.5"/>
<path d="M1154.65 1002.59L1038.37 942.58" stroke="#132E65" stroke-width="1.5"/>
<path d="M1154.65 1002.59L1187.78 1161.66" stroke="#132E65" stroke-width="1.5"/>
<path d="M1154.65 1002.59L1042.37 1138.73" stroke="#132E65" stroke-width="1.5"/>
<path d="M1187.78 1161.66L1293.17 958.98" stroke="#132E65" stroke-width="1.5"/>
<path d="M988.65 523.77L971.1 708.64" stroke="#132E65" stroke-width="1.5"/>
<path d="M988.65 523.77L840.28 667.69" stroke="#132E65" stroke-width="1.5"/>
<path d="M988.65 523.77L1139.42 691.3" stroke="#132E65" stroke-width="1.5"/>
<path d="M988.65 523.77L837.61 338.64" stroke="#132E65" stroke-width="1.5"/>
<path d="M988.65 523.77L729.82 406.61" stroke="#132E65" stroke-width="1.5"/>
<path d="M971.1 708.64L1006.13 813.98" stroke="#132E65" stroke-width="1.5"/>
<path d="M971.1 708.64L891.14 812.62" stroke="#132E65" stroke-width="1.5"/>
<path d="M971.1 708.64L840.28 667.69" stroke="#132E65" stroke-width="1.5"/>
<path d="M1006.13 813.98L891.14 812.62" stroke="#132E65" stroke-width="1.5"/>
<path d="M1038.37 942.58L1006.13 813.98" stroke="#132E65" stroke-width="1.5"/>
<path d="M1038.37 942.58L1042.37 1138.73" stroke="#132E65" stroke-width="1.5"/>
<path d="M1038.37 942.58L891.14 812.62" stroke="#132E65" stroke-width="1.5"/>
<path d="M1038.37 942.58L825.2 960.55" stroke="#132E65" stroke-width="1.5"/>
<path d="M867.84 247.92L837.61 338.64" stroke="#132E65" stroke-width="1.5"/>
<path d="M867.84 247.92L695.93 222.1" stroke="#132E65" stroke-width="1.5"/>
<path d="M867.84 247.92L729.82 406.61" stroke="#132E65" stroke-width="1.5"/>
<path d="M867.84 247.92L733.79 47.2" stroke="#132E65" stroke-width="1.5"/>
<path d="M867.84 247.92L988.65 523.77" stroke="#132E65" stroke-width="1.5"/>
<path d="M837.61 338.64L729.82 406.61" stroke="#132E65" stroke-width="1.5"/>
<path d="M840.28 667.69L722.38 673.54" stroke="#132E65" stroke-width="1.5"/>
<path d="M840.28 667.69L891.14 812.62" stroke="#132E65" stroke-width="1.5"/>
<path d="M825.2 960.55L740.8 953.12" stroke="#132E65" stroke-width="1.5"/>
<path d="M825.2 960.55L891.14 812.62" stroke="#132E65" stroke-width="1.5"/>
<path d="M825.2 960.55L887.42 1144.7" stroke="#132E65" stroke-width="1.5"/>
<path d="M726.57 -42.6602L733.79 47.1998" stroke="#132E65" stroke-width="1.5"/>
<path d="M726.57 -42.6602L549.57 82.0898" stroke="#132E65" stroke-width="1.5"/>
<path d="M733.79 47.2L695.93 222.1" stroke="#132E65" stroke-width="1.5"/>
<path d="M733.79 47.2L549.57 82.0899" stroke="#132E65" stroke-width="1.5"/>
<path d="M733.79 47.2L837.61 338.64" stroke="#132E65" stroke-width="1.5"/>
<path d="M695.93 222.1L837.61 338.64" stroke="#132E65" stroke-width="1.5"/>
<path d="M695.93 222.1L553.39 343.28" stroke="#132E65" stroke-width="1.5"/>
<path d="M729.82 406.61L701.54 542.26" stroke="#132E65" stroke-width="1.5"/>
<path d="M729.82 406.61L589.35 517.06" stroke="#132E65" stroke-width="1.5"/>
<path d="M729.82 406.61L553.39 343.28" stroke="#132E65" stroke-width="1.5"/>
<path d="M701.54 542.26L589.35 517.06" stroke="#132E65" stroke-width="1.5"/>
<path d="M701.54 542.26L722.38 673.54" stroke="#132E65" stroke-width="1.5"/>
<path d="M722.38 673.54L674.32 814.55" stroke="#132E65" stroke-width="1.5"/>
<path d="M722.38 673.54L562.6 645.22" stroke="#132E65" stroke-width="1.5"/>
<path d="M722.38 673.54L589.35 517.06" stroke="#132E65" stroke-width="1.5"/>
<path d="M674.32 814.55L528.8 825.31" stroke="#132E65" stroke-width="1.5"/>
<path d="M674.32 814.55L740.8 953.12" stroke="#132E65" stroke-width="1.5"/>
<path d="M674.32 814.55L529.59 947.46" stroke="#132E65" stroke-width="1.5"/>
<path d="M740.8 953.12L689.66 1124.53" stroke="#132E65" stroke-width="1.5"/>
<path d="M740.8 953.12L891.14 812.62" stroke="#132E65" stroke-width="1.5"/>
<path d="M740.8 953.12L529.59 947.46" stroke="#132E65" stroke-width="1.5"/>
<path d="M549.57 82.0898L695.93 222.1" stroke="#132E65" stroke-width="1.5"/>
<path d="M549.57 82.0898L374.37 214.33" stroke="#132E65" stroke-width="1.5"/>
<path d="M549.57 82.09L401.72 -87.02" stroke="#132E65" stroke-width="1.5"/>
<path d="M549.57 82.0898L553.39 343.28" stroke="#132E65" stroke-width="1.5"/>
<path d="M553.39 343.28L589.35 517.06" stroke="#132E65" stroke-width="1.5"/>
<path d="M553.39 343.28L371.56 352.61" stroke="#132E65" stroke-width="1.5"/>
<path d="M589.35 517.06L562.6 645.22" stroke="#132E65" stroke-width="1.5"/>
<path d="M589.35 517.06L413.55 537.05" stroke="#132E65" stroke-width="1.5"/>
<path d="M528.8 825.31L429.7 814.93" stroke="#132E65" stroke-width="1.5"/>
<path d="M528.8 825.31L529.59 947.46" stroke="#132E65" stroke-width="1.5"/>
<path d="M528.8 825.31L424.81 942.06" stroke="#132E65" stroke-width="1.5"/>
<path d="M528.8 825.31L562.6 645.22" stroke="#132E65" stroke-width="1.5"/>
<path d="M528.8 825.31L388.85 670.68" stroke="#132E65" stroke-width="1.5"/>
<path d="M529.59 947.46L424.81 942.06" stroke="#132E65" stroke-width="1.5"/>
<path d="M551.02 1137.56L529.59 947.46" stroke="#132E65" stroke-width="1.5"/>
<path d="M551.02 1137.56L424.81 942.06" stroke="#132E65" stroke-width="1.5"/>
<path d="M551.02 1137.56L740.8 953.12" stroke="#132E65" stroke-width="1.5"/>
<path d="M401.72 -87.02L229.72 98.81" stroke="#132E65" stroke-width="1.5"/>
<path d="M401.72 -87.02L136.04 42.98" stroke="#132E65" stroke-width="1.5"/>
<path d="M374.37 214.33L244.94 226.68" stroke="#132E65" stroke-width="1.5"/>
<path d="M374.37 214.33L371.56 352.61" stroke="#132E65" stroke-width="1.5"/>
<path d="M374.37 214.33L246.68 339.37" stroke="#132E65" stroke-width="1.5"/>
<path d="M371.56 352.61L246.68 339.37" stroke="#132E65" stroke-width="1.5"/>
<path d="M371.56 352.61L244.94 226.68" stroke="#132E65" stroke-width="1.5"/>
<path d="M371.56 352.61L413.55 537.05" stroke="#132E65" stroke-width="1.5"/>
<path d="M371.56 352.61L244.54 495.22" stroke="#132E65" stroke-width="1.5"/>
<path d="M413.55 537.05L388.85 670.68" stroke="#132E65" stroke-width="1.5"/>
<path d="M413.55 537.05L244.54 495.22" stroke="#132E65" stroke-width="1.5"/>
<path d="M413.55 537.05L562.6 645.22" stroke="#132E65" stroke-width="1.5"/>
<path d="M388.85 670.68L267.03 702.97" stroke="#132E65" stroke-width="1.5"/>
<path d="M424.81 942.06L429.7 814.93" stroke="#132E65" stroke-width="1.5"/>
<path d="M441.18 1142.89L424.81 942.06" stroke="#132E65" stroke-width="1.5"/>
<path d="M441.18 1142.89L529.59 947.46" stroke="#132E65" stroke-width="1.5"/>
<path d="M261.12 -88.4102L136.04 42.9798" stroke="#132E65" stroke-width="1.5"/>
<path d="M261.12 -88.4102L229.72 98.8098" stroke="#132E65" stroke-width="1.5"/>
<path d="M229.72 98.81L136.04 42.98" stroke="#132E65" stroke-width="1.5"/>
<path d="M229.72 98.8098L244.94 226.68" stroke="#132E65" stroke-width="1.5"/>
<path d="M229.72 98.8098L107.35 231.56" stroke="#132E65" stroke-width="1.5"/>
<path d="M244.94 226.68L246.68 339.37" stroke="#132E65" stroke-width="1.5"/>
<path d="M244.94 226.68L107.35 231.56" stroke="#132E65" stroke-width="1.5"/>
<path d="M246.68 339.37L113.88 402.51" stroke="#132E65" stroke-width="1.5"/>
<path d="M244.54 495.22L246.68 339.37" stroke="#132E65" stroke-width="1.5"/>
<path d="M244.54 495.22L113.88 402.51" stroke="#132E65" stroke-width="1.5"/>
<path d="M244.54 495.22L267.03 702.97" stroke="#132E65" stroke-width="1.5"/>
<path d="M244.54 495.22L388.85 670.68" stroke="#132E65" stroke-width="1.5"/>
<path d="M267.03 702.97L217.58 826.06" stroke="#132E65" stroke-width="1.5"/>
<path d="M267.03 702.97L126.5 835.98" stroke="#132E65" stroke-width="1.5"/>
<path d="M267.03 702.97L69.63 699" stroke="#132E65" stroke-width="1.5"/>
<path d="M267.03 702.97L429.7 814.93" stroke="#132E65" stroke-width="1.5"/>
<path d="M217.58 826.06L126.5 835.98" stroke="#132E65" stroke-width="1.5"/>
<path d="M217.58 826.06L133.86 974.51" stroke="#132E65" stroke-width="1.5"/>
<path d="M217.58 826.06L69.6301 699" stroke="#132E65" stroke-width="1.5"/>
<path d="M217.58 826.06L429.7 814.93" stroke="#132E65" stroke-width="1.5"/>
<path d="M231.33 1099.52L133.86 974.51" stroke="#132E65" stroke-width="1.5"/>
<path d="M80.49 -96.4202L136.04 42.9798" stroke="#132E65" stroke-width="1.5"/>
<path d="M80.49 -96.4202L-57.33 41.3798" stroke="#132E65" stroke-width="1.5"/>
<path d="M107.35 231.56L113.88 402.51" stroke="#132E65" stroke-width="1.5"/>
<path d="M107.35 231.56L246.68 339.37" stroke="#132E65" stroke-width="1.5"/>
<path d="M107.35 231.56L-80.9799 230.14" stroke="#132E65" stroke-width="1.5"/>
<path d="M107.35 231.56L136.04 42.98" stroke="#132E65" stroke-width="1.5"/>
<path d="M69.6301 699L-63.5599 670.11" stroke="#132E65" stroke-width="1.5"/>
<path d="M69.63 699L126.5 835.98" stroke="#132E65" stroke-width="1.5"/>
<path d="M126.5 835.98L133.86 974.51" stroke="#132E65" stroke-width="1.5"/>
<path d="M126.5 835.98L-59.17 838.88" stroke="#132E65" stroke-width="1.5"/>
<path d="M126.5 835.98L-40.28 991.88" stroke="#132E65" stroke-width="1.5"/>
<path d="M133.86 974.51L142.19 1098.63" stroke="#132E65" stroke-width="1.5"/>
<path d="M133.86 974.51L-40.2799 991.88" stroke="#132E65" stroke-width="1.5"/>
<path d="M-40.28 991.88L142.19 1098.63" stroke="#132E65" stroke-width="1.5"/>
<path d="M-45.5599 1148.27L133.86 974.51" stroke="#132E65" stroke-width="1.5"/>
<path d="M-175.54 -111.09L136.04 42.9799" stroke="#132E65" stroke-width="1.5"/>
<path d="M-178.81 652.71L69.6301 699" stroke="#132E65" stroke-width="1.5"/>
<path d="M1912.32 674.72C1909.56 674.72 1907.32 672.481 1907.32 669.72C1907.32 666.958 1909.56 664.72 1912.32 664.72C1915.08 664.72 1917.32 666.958 1917.32 669.72C1917.32 672.481 1915.08 674.72 1912.32 674.72Z" fill="#132E65"/>
<path d="M1895.86 844.07C1893.1 844.07 1890.86 841.831 1890.86 839.07C1890.86 836.308 1893.1 834.07 1895.86 834.07C1898.62 834.07 1900.86 836.308 1900.86 839.07C1900.86 841.831 1898.62 844.07 1895.86 844.07Z" fill="#132E65"/>
<path d="M1891.18 977.26C1888.42 977.26 1886.18 975.021 1886.18 972.26C1886.18 969.498 1888.42 967.26 1891.18 967.26C1893.94 967.26 1896.18 969.498 1896.18 972.26C1896.18 975.021 1893.94 977.26 1891.18 977.26Z" fill="#132E65"/>
<path d="M1785.05 672.58C1782.29 672.58 1780.05 670.342 1780.05 667.58C1780.05 664.819 1782.29 662.58 1785.05 662.58C1787.81 662.58 1790.05 664.819 1790.05 667.58C1790.05 670.342 1787.81 672.58 1785.05 672.58Z" fill="#132E65"/>
<path d="M1746.43 820.24C1743.67 820.24 1741.43 818.001 1741.43 815.24C1741.43 812.478 1743.67 810.24 1746.43 810.24C1749.19 810.24 1751.43 812.478 1751.43 815.24C1751.43 818.001 1749.19 820.24 1746.43 820.24Z" fill="#132E65"/>
<path d="M1743.29 978.51C1740.53 978.51 1738.29 976.271 1738.29 973.51C1738.29 970.748 1740.53 968.51 1743.29 968.51C1746.05 968.51 1748.29 970.748 1748.29 973.51C1748.29 976.271 1746.05 978.51 1743.29 978.51Z" fill="#132E65"/>
<path d="M1629.62 686.6C1626.86 686.6 1624.62 684.361 1624.62 681.6C1624.62 678.838 1626.86 676.6 1629.62 676.6C1632.38 676.6 1634.62 678.838 1634.62 681.6C1634.62 684.361 1632.38 686.6 1629.62 686.6Z" fill="#132E65"/>
<path d="M1591.56 805.04C1588.8 805.04 1586.56 802.801 1586.56 800.04C1586.56 797.279 1588.8 795.04 1591.56 795.04C1594.32 795.04 1596.56 797.279 1596.56 800.04C1596.56 802.801 1594.32 805.04 1591.56 805.04Z" fill="#132E65"/>
<path d="M1615.83 984.12C1613.07 984.12 1610.83 981.881 1610.83 979.12C1610.83 976.358 1613.07 974.12 1615.83 974.12C1618.59 974.12 1620.83 976.358 1620.83 979.12C1620.83 981.881 1618.59 984.12 1615.83 984.12Z" fill="#132E65"/>
<path d="M1478.43 655.39C1475.67 655.39 1473.43 653.151 1473.43 650.39C1473.43 647.628 1475.67 645.39 1478.43 645.39C1481.19 645.39 1483.43 647.628 1483.43 650.39C1483.43 653.151 1481.19 655.39 1478.43 655.39Z" fill="#132E65"/>
<path d="M1461.08 826.85C1458.32 826.85 1456.08 824.611 1456.08 821.85C1456.08 819.088 1458.32 816.85 1461.08 816.85C1463.84 816.85 1466.08 819.088 1466.08 821.85C1466.08 824.611 1463.84 826.85 1461.08 826.85Z" fill="#132E65"/>
<path d="M1475.45 978.69C1472.69 978.69 1470.45 976.451 1470.45 973.69C1470.45 970.929 1472.69 968.69 1475.45 968.69C1478.21 968.69 1480.45 970.929 1480.45 973.69C1480.45 976.451 1478.21 978.69 1475.45 978.69Z" fill="#132E65"/>
<path d="M1281.28 655.17C1278.52 655.17 1276.28 652.931 1276.28 650.17C1276.28 647.408 1278.52 645.17 1281.28 645.17C1284.04 645.17 1286.28 647.408 1286.28 650.17C1286.28 652.931 1284.04 655.17 1281.28 655.17Z" fill="#132E65"/>
<path d="M1283.19 833.49C1280.43 833.49 1278.19 831.251 1278.19 828.49C1278.19 825.728 1280.43 823.49 1283.19 823.49C1285.95 823.49 1288.19 825.728 1288.19 828.49C1288.19 831.251 1285.95 833.49 1283.19 833.49Z" fill="#132E65"/>
<path d="M1293.17 963.98C1290.41 963.98 1288.17 961.741 1288.17 958.98C1288.17 956.219 1290.41 953.98 1293.17 953.98C1295.93 953.98 1298.17 956.219 1298.17 958.98C1298.17 961.741 1295.93 963.98 1293.17 963.98Z" fill="#132E65"/>
<path d="M1183.64 561.3C1180.88 561.3 1178.64 559.061 1178.64 556.3C1178.64 553.538 1180.88 551.3 1183.64 551.3C1186.4 551.3 1188.64 553.538 1188.64 556.3C1188.64 559.061 1186.4 561.3 1183.64 561.3Z" fill="#132E65"/>
<path d="M1139.42 696.3C1136.66 696.3 1134.42 694.061 1134.42 691.3C1134.42 688.538 1136.66 686.3 1139.42 686.3C1142.18 686.3 1144.42 688.538 1144.42 691.3C1144.42 694.061 1142.18 696.3 1139.42 696.3Z" fill="#132E65"/>
<path d="M1128.24 866.73C1125.48 866.73 1123.24 864.491 1123.24 861.73C1123.24 858.969 1125.48 856.73 1128.24 856.73C1131 856.73 1133.24 858.969 1133.24 861.73C1133.24 864.491 1131 866.73 1128.24 866.73Z" fill="#132E65"/>
<path d="M1154.65 1007.59C1151.89 1007.59 1149.65 1005.35 1149.65 1002.59C1149.65 999.828 1151.89 997.59 1154.65 997.59C1157.41 997.59 1159.65 999.828 1159.65 1002.59C1159.65 1005.35 1157.41 1007.59 1154.65 1007.59Z" fill="#132E65"/>
<path d="M988.65 528.77C985.889 528.77 983.65 526.531 983.65 523.77C983.65 521.009 985.889 518.77 988.65 518.77C991.412 518.77 993.65 521.009 993.65 523.77C993.65 526.531 991.412 528.77 988.65 528.77Z" fill="#132E65"/>
<path d="M971.1 713.64C968.339 713.64 966.1 711.401 966.1 708.64C966.1 705.878 968.339 703.64 971.1 703.64C973.862 703.64 976.1 705.878 976.1 708.64C976.1 711.401 973.862 713.64 971.1 713.64Z" fill="#132E65"/>
<path d="M1006.13 818.98C1003.37 818.98 1001.13 816.741 1001.13 813.98C1001.13 811.219 1003.37 808.98 1006.13 808.98C1008.89 808.98 1011.13 811.219 1011.13 813.98C1011.13 816.741 1008.89 818.98 1006.13 818.98Z" fill="#132E65"/>
<path d="M1038.37 947.58C1035.61 947.58 1033.37 945.342 1033.37 942.58C1033.37 939.819 1035.61 937.58 1038.37 937.58C1041.13 937.58 1043.37 939.819 1043.37 942.58C1043.37 945.342 1041.13 947.58 1038.37 947.58Z" fill="#132E65"/>
<path d="M867.84 252.92C865.079 252.92 862.84 250.681 862.84 247.92C862.84 245.158 865.079 242.92 867.84 242.92C870.602 242.92 872.84 245.158 872.84 247.92C872.84 250.681 870.602 252.92 867.84 252.92Z" fill="#132E65"/>
<path d="M837.61 343.64C834.849 343.64 832.61 341.401 832.61 338.64C832.61 335.878 834.849 333.64 837.61 333.64C840.372 333.64 842.61 335.878 842.61 338.64C842.61 341.401 840.372 343.64 837.61 343.64Z" fill="#132E65"/>
<path d="M840.28 672.69C837.519 672.69 835.28 670.451 835.28 667.69C835.28 664.929 837.519 662.69 840.28 662.69C843.041 662.69 845.28 664.929 845.28 667.69C845.28 670.451 843.041 672.69 840.28 672.69Z" fill="#132E65"/>
<path d="M891.14 817.62C888.379 817.62 886.14 815.381 886.14 812.62C886.14 809.858 888.379 807.62 891.14 807.62C893.902 807.62 896.14 809.858 896.14 812.62C896.14 815.381 893.902 817.62 891.14 817.62Z" fill="#132E65"/>
<path d="M825.2 965.55C822.439 965.55 820.2 963.311 820.2 960.55C820.2 957.788 822.439 955.55 825.2 955.55C827.961 955.55 830.2 957.788 830.2 960.55C830.2 963.311 827.961 965.55 825.2 965.55Z" fill="#132E65"/>
<path d="M733.79 52.2C731.029 52.2 728.79 49.9614 728.79 47.2C728.79 44.4385 731.029 42.2 733.79 42.2C736.551 42.2 738.79 44.4385 738.79 47.2C738.79 49.9614 736.551 52.2 733.79 52.2Z" fill="#132E65"/>
<path d="M695.93 227.1C693.169 227.1 690.93 224.861 690.93 222.1C690.93 219.338 693.169 217.1 695.93 217.1C698.692 217.1 700.93 219.338 700.93 222.1C700.93 224.861 698.692 227.1 695.93 227.1Z" fill="#132E65"/>
<path d="M729.82 411.61C727.059 411.61 724.82 409.371 724.82 406.61C724.82 403.848 727.059 401.61 729.82 401.61C732.581 401.61 734.82 403.848 734.82 406.61C734.82 409.371 732.581 411.61 729.82 411.61Z" fill="#132E65"/>
<path d="M701.54 547.26C698.779 547.26 696.54 545.021 696.54 542.26C696.54 539.498 698.779 537.26 701.54 537.26C704.301 537.26 706.54 539.498 706.54 542.26C706.54 545.021 704.301 547.26 701.54 547.26Z" fill="#132E65"/>
<path d="M722.38 678.54C719.619 678.54 717.38 676.301 717.38 673.54C717.38 670.779 719.619 668.54 722.38 668.54C725.142 668.54 727.38 670.779 727.38 673.54C727.38 676.301 725.142 678.54 722.38 678.54Z" fill="#132E65"/>
<path d="M674.32 819.55C671.559 819.55 669.32 817.311 669.32 814.55C669.32 811.788 671.559 809.55 674.32 809.55C677.081 809.55 679.32 811.788 679.32 814.55C679.32 817.311 677.081 819.55 674.32 819.55Z" fill="#132E65"/>
<path d="M740.8 958.12C738.039 958.12 735.8 955.881 735.8 953.12C735.8 950.358 738.039 948.12 740.8 948.12C743.561 948.12 745.8 950.358 745.8 953.12C745.8 955.881 743.561 958.12 740.8 958.12Z" fill="#132E65"/>
<path d="M549.57 87.0898C546.809 87.0898 544.57 84.8513 544.57 82.0898C544.57 79.3284 546.809 77.0898 549.57 77.0898C552.331 77.0898 554.57 79.3284 554.57 82.0898C554.57 84.8513 552.331 87.0898 549.57 87.0898Z" fill="#132E65"/>
<path d="M553.39 348.28C550.629 348.28 548.39 346.041 548.39 343.28C548.39 340.518 550.629 338.28 553.39 338.28C556.152 338.28 558.39 340.518 558.39 343.28C558.39 346.041 556.152 348.28 553.39 348.28Z" fill="#132E65"/>
<path d="M589.35 522.06C586.589 522.06 584.35 519.821 584.35 517.06C584.35 514.299 586.589 512.06 589.35 512.06C592.112 512.06 594.35 514.299 594.35 517.06C594.35 519.821 592.112 522.06 589.35 522.06Z" fill="#132E65"/>
<path d="M562.6 650.22C559.839 650.22 557.6 647.981 557.6 645.22C557.6 642.458 559.839 640.22 562.6 640.22C565.362 640.22 567.6 642.458 567.6 645.22C567.6 647.981 565.362 650.22 562.6 650.22Z" fill="#132E65"/>
<path d="M528.8 830.31C526.039 830.31 523.8 828.071 523.8 825.31C523.8 822.549 526.039 820.31 528.8 820.31C531.561 820.31 533.8 822.549 533.8 825.31C533.8 828.071 531.561 830.31 528.8 830.31Z" fill="#132E65"/>
<path d="M529.59 952.46C526.829 952.46 524.59 950.221 524.59 947.46C524.59 944.699 526.829 942.46 529.59 942.46C532.352 942.46 534.59 944.699 534.59 947.46C534.59 950.221 532.352 952.46 529.59 952.46Z" fill="#132E65"/>
<path d="M374.37 219.33C371.609 219.33 369.37 217.091 369.37 214.33C369.37 211.568 371.609 209.33 374.37 209.33C377.132 209.33 379.37 211.568 379.37 214.33C379.37 217.091 377.132 219.33 374.37 219.33Z" fill="#132E65"/>
<path d="M371.56 357.61C368.799 357.61 366.56 355.371 366.56 352.61C366.56 349.848 368.799 347.61 371.56 347.61C374.321 347.61 376.56 349.848 376.56 352.61C376.56 355.371 374.321 357.61 371.56 357.61Z" fill="#132E65"/>
<path d="M413.55 542.05C410.789 542.05 408.55 539.811 408.55 537.05C408.55 534.288 410.789 532.05 413.55 532.05C416.311 532.05 418.55 534.288 418.55 537.05C418.55 539.811 416.311 542.05 413.55 542.05Z" fill="#132E65"/>
<path d="M388.85 675.68C386.089 675.68 383.85 673.441 383.85 670.68C383.85 667.919 386.089 665.68 388.85 665.68C391.612 665.68 393.85 667.919 393.85 670.68C393.85 673.441 391.612 675.68 388.85 675.68Z" fill="#132E65"/>
<path d="M429.7 819.93C426.939 819.93 424.7 817.691 424.7 814.93C424.7 812.169 426.939 809.93 429.7 809.93C432.461 809.93 434.7 812.169 434.7 814.93C434.7 817.691 432.461 819.93 429.7 819.93Z" fill="#132E65"/>
<path d="M424.81 947.06C422.049 947.06 419.81 944.821 419.81 942.06C419.81 939.299 422.049 937.06 424.81 937.06C427.571 937.06 429.81 939.299 429.81 942.06C429.81 944.821 427.571 947.06 424.81 947.06Z" fill="#132E65"/>
<path d="M229.72 103.81C226.959 103.81 224.72 101.571 224.72 98.8098C224.72 96.0484 226.959 93.8098 229.72 93.8098C232.481 93.8098 234.72 96.0484 234.72 98.8098C234.72 101.571 232.481 103.81 229.72 103.81Z" fill="#132E65"/>
<path d="M244.94 231.68C242.179 231.68 239.94 229.441 239.94 226.68C239.94 223.919 242.179 221.68 244.94 221.68C247.701 221.68 249.94 223.919 249.94 226.68C249.94 229.441 247.701 231.68 244.94 231.68Z" fill="#132E65"/>
<path d="M246.68 344.37C243.919 344.37 241.68 342.131 241.68 339.37C241.68 336.608 243.919 334.37 246.68 334.37C249.442 334.37 251.68 336.608 251.68 339.37C251.68 342.131 249.442 344.37 246.68 344.37Z" fill="#132E65"/>
<path d="M244.54 500.22C241.779 500.22 239.54 497.981 239.54 495.22C239.54 492.459 241.779 490.22 244.54 490.22C247.301 490.22 249.54 492.459 249.54 495.22C249.54 497.981 247.301 500.22 244.54 500.22Z" fill="#132E65"/>
<path d="M267.03 707.97C264.269 707.97 262.03 705.731 262.03 702.97C262.03 700.208 264.269 697.97 267.03 697.97C269.791 697.97 272.03 700.208 272.03 702.97C272.03 705.731 269.791 707.97 267.03 707.97Z" fill="#132E65"/>
<path d="M217.58 831.06C214.819 831.06 212.58 828.821 212.58 826.06C212.58 823.299 214.819 821.06 217.58 821.06C220.342 821.06 222.58 823.299 222.58 826.06C222.58 828.821 220.342 831.06 217.58 831.06Z" fill="#132E65"/>
<path d="M136.04 47.98C133.279 47.98 131.04 45.7414 131.04 42.98C131.04 40.2186 133.279 37.98 136.04 37.98C138.801 37.98 141.04 40.2186 141.04 42.98C141.04 45.7414 138.801 47.98 136.04 47.98Z" fill="#132E65"/>
<path d="M107.35 236.56C104.589 236.56 102.35 234.321 102.35 231.56C102.35 228.798 104.589 226.56 107.35 226.56C110.112 226.56 112.35 228.798 112.35 231.56C112.35 234.321 110.112 236.56 107.35 236.56Z" fill="#132E65"/>
<path d="M113.88 407.51C111.119 407.51 108.88 405.271 108.88 402.51C108.88 399.748 111.119 397.51 113.88 397.51C116.642 397.51 118.88 399.748 118.88 402.51C118.88 405.271 116.642 407.51 113.88 407.51Z" fill="#132E65"/>
<path d="M69.6301 704C66.8687 704 64.6301 701.761 64.6301 699C64.6301 696.239 66.8687 694 69.6301 694C72.3916 694 74.6301 696.239 74.6301 699C74.6301 701.761 72.3916 704 69.6301 704Z" fill="#132E65"/>
<path d="M126.5 840.98C123.739 840.98 121.5 838.741 121.5 835.98C121.5 833.219 123.739 830.98 126.5 830.98C129.261 830.98 131.5 833.219 131.5 835.98C131.5 838.741 129.261 840.98 126.5 840.98Z" fill="#132E65"/>
<path d="M133.86 979.51C131.099 979.51 128.86 977.271 128.86 974.51C128.86 971.748 131.099 969.51 133.86 969.51C136.622 969.51 138.86 971.748 138.86 974.51C138.86 977.271 136.622 979.51 133.86 979.51Z" fill="#132E65"/>
<path d="M2021.01 945.46L1892.86 939.4" stroke="black" stroke-width="1.5"/>
<path d="M1627.2 1012.16L1623.6 1109.62" stroke="black" stroke-width="1.5"/>
<path d="M1627.2 1012.16L1757.4 989.75" stroke="black" stroke-width="1.5"/>
<path d="M1627.2 1012.16L1468.4 1126.34" stroke="black" stroke-width="1.5"/>
<path d="M1627.2 1012.16L1774.11 1155.49" stroke="black" stroke-width="1.5"/>
<path d="M1627.2 1012.16L1744.38 835.04" stroke="black" stroke-width="1.5"/>
<path d="M1627.2 1012.16L1477.28 851.69" stroke="black" stroke-width="1.5"/>
<path d="M1477.28 851.69L1322.65 973.75" stroke="black" stroke-width="1.5"/>
<path d="M1477.28 851.69L1282.36 804.43" stroke="black" stroke-width="1.5"/>
<path d="M1477.28 851.69L1744.38 835.04" stroke="black" stroke-width="1.5"/>
<path d="M1477.28 851.69L1468.4 1126.34" stroke="black" stroke-width="1.5"/>
<path d="M1282.36 804.43L1145.87 851.48" stroke="black" stroke-width="1.5"/>
<path d="M1282.36 804.43L1322.65 973.75" stroke="black" stroke-width="1.5"/>
<path d="M1282.36 804.43L1128.48 942.75" stroke="black" stroke-width="1.5"/>
<path d="M1133.94 1140.56L1128.48 942.75" stroke="black" stroke-width="1.5"/>
<path d="M1133.94 1140.56L1322.65 973.75" stroke="black" stroke-width="1.5"/>
<path d="M1133.94 1140.56L975.57 943.51" stroke="black" stroke-width="1.5"/>
<path d="M1133.94 1140.56L1145.87 851.48" stroke="black" stroke-width="1.5"/>
<path d="M1007.49 669.89L862.04 651.51" stroke="black" stroke-width="1.5"/>
<path d="M1007.49 669.89L976.28 818.03" stroke="black" stroke-width="1.5"/>
<path d="M1007.49 669.89L860 806.12" stroke="black" stroke-width="1.5"/>
<path d="M1007.49 669.89L1145.87 851.48" stroke="black" stroke-width="1.5"/>
<path d="M1007.49 669.89L975.57 943.51" stroke="black" stroke-width="1.5"/>
<path d="M862.04 651.51L860 806.12" stroke="black" stroke-width="1.5"/>
<path d="M862.04 651.51L700.86 701.98" stroke="black" stroke-width="1.5"/>
<path d="M862.04 651.51L976.28 818.03" stroke="black" stroke-width="1.5"/>
<path d="M862.04 651.51L702.03 809.17" stroke="black" stroke-width="1.5"/>
<path d="M862.04 651.51L673.46 506.65" stroke="black" stroke-width="1.5"/>
<path d="M860 806.12L976.28 818.03" stroke="black" stroke-width="1.5"/>
<path d="M860 806.12L702.03 809.17" stroke="black" stroke-width="1.5"/>
<path d="M860.53 965L975.57 943.51" stroke="black" stroke-width="1.5"/>
<path d="M860.53 965L860 806.12" stroke="black" stroke-width="1.5"/>
<path d="M860.53 965L841.65 1129" stroke="black" stroke-width="1.5"/>
<path d="M860.53 965L976.28 818.03" stroke="black" stroke-width="1.5"/>
<path d="M860.53 965L673.15 963.95" stroke="black" stroke-width="1.5"/>
<path d="M860.53 965L986.95 1136.64" stroke="black" stroke-width="1.5"/>
<path d="M673.15 963.95L587.38 986.71" stroke="black" stroke-width="1.5"/>
<path d="M673.15 963.95L702.03 809.17" stroke="black" stroke-width="1.5"/>
<path d="M673.15 963.95L587.66 819.36" stroke="black" stroke-width="1.5"/>
<path d="M387.62 -80.1802L222.33 86.8998" stroke="black" stroke-width="1.5"/>
<path d="M387.62 -80.1802L410.1 206.07" stroke="black" stroke-width="1.5"/>
<path d="M222.33 86.9L112.77 44.49" stroke="black" stroke-width="1.5"/>
<path d="M222.33 86.9L256.66 -49.24" stroke="black" stroke-width="1.5"/>
<path d="M79.9 -56.7202L112.77 44.4898" stroke="black" stroke-width="1.5"/>
<path d="M79.9001 -56.7202L222.33 86.8998" stroke="black" stroke-width="1.5"/>
<path d="M79.9001 -56.7202L-64.1799 92.9598" stroke="black" stroke-width="1.5"/>
<path d="M79.9001 -56.7202L-19.6199 194.24" stroke="black" stroke-width="1.5"/>
<path d="M85.6501 384.18L-46.4199 405.57" stroke="black" stroke-width="1.5"/>
<path d="M85.65 384.18L107.7 244.19" stroke="black" stroke-width="1.5"/>
<path d="M141.49 559.24L268.3 525.25" stroke="black" stroke-width="1.5"/>
<path d="M141.49 559.24L241.72 709.18" stroke="black" stroke-width="1.5"/>
<path d="M141.49 559.24L85.65 384.18" stroke="black" stroke-width="1.5"/>
<path d="M-64.1801 92.96L112.77 44.49" stroke="black" stroke-width="1.5"/>
<path d="M2019.82 820.49L1892.86 939.4" stroke="black" stroke-width="1.5"/>
<path d="M2052.75 1092.61L1892.86 939.4" stroke="black" stroke-width="1.5"/>
<path d="M1928.35 1095.08L1892.86 939.4" stroke="black" stroke-width="1.5"/>
<path d="M1928.35 1095.08L2021.01 945.46" stroke="black" stroke-width="1.5"/>
<path d="M1744.38 835.04L1757.4 989.75" stroke="black" stroke-width="1.5"/>
<path d="M1744.38 835.04L1892.86 939.4" stroke="black" stroke-width="1.5"/>
<path d="M1757.4 989.75L1892.86 939.4" stroke="black" stroke-width="1.5"/>
<path d="M1774.11 1155.49L1757.4 989.75" stroke="black" stroke-width="1.5"/>
<path d="M1322.65 973.75L1341.28 1137.35" stroke="black" stroke-width="1.5"/>
<path d="M1145.87 851.48L1128.48 942.75" stroke="black" stroke-width="1.5"/>
<path d="M1145.87 851.48L976.28 818.03" stroke="black" stroke-width="1.5"/>
<path d="M1128.48 942.75L975.57 943.51" stroke="black" stroke-width="1.5"/>
<path d="M1128.48 942.75L1322.65 973.75" stroke="black" stroke-width="1.5"/>
<path d="M1128.48 942.75L976.28 818.03" stroke="black" stroke-width="1.5"/>
<path d="M976.28 818.03L975.57 943.51" stroke="black" stroke-width="1.5"/>
<path d="M975.57 943.51L860 806.12" stroke="black" stroke-width="1.5"/>
<path d="M975.57 943.51L986.95 1136.64" stroke="black" stroke-width="1.5"/>
<path d="M841.65 1129L975.57 943.51" stroke="black" stroke-width="1.5"/>
<path d="M841.65 1129L673.15 963.95" stroke="black" stroke-width="1.5"/>
<path d="M673.46 506.65L563.67 489.51" stroke="black" stroke-width="1.5"/>
<path d="M673.46 506.65L532.99 396.68" stroke="black" stroke-width="1.5"/>
<path d="M673.46 506.65L700.86 701.98" stroke="black" stroke-width="1.5"/>
<path d="M673.46 506.65L559.09 711.34" stroke="black" stroke-width="1.5"/>
<path d="M700.86 701.98L702.03 809.17" stroke="black" stroke-width="1.5"/>
<path d="M700.86 701.98L559.09 711.34" stroke="black" stroke-width="1.5"/>
<path d="M702.03 809.17L587.66 819.36" stroke="black" stroke-width="1.5"/>
<path d="M700.32 1145.8L673.15 963.95" stroke="black" stroke-width="1.5"/>
<path d="M700.32 1145.8L587.38 986.71" stroke="black" stroke-width="1.5"/>
<path d="M700.32 1145.8L860.53 965" stroke="black" stroke-width="1.5"/>
<path d="M532.99 396.68L563.67 489.51" stroke="black" stroke-width="1.5"/>
<path d="M532.99 396.68L439.73 345.9" stroke="black" stroke-width="1.5"/>
<path d="M532.99 396.68L387.31 495.96" stroke="black" stroke-width="1.5"/>
<path d="M532.99 396.68L410.1 206.07" stroke="black" stroke-width="1.5"/>
<path d="M532.99 396.68L258.5 375.91" stroke="black" stroke-width="1.5"/>
<path d="M563.67 489.51L387.31 495.96" stroke="black" stroke-width="1.5"/>
<path d="M563.67 489.51L439.73 345.9" stroke="black" stroke-width="1.5"/>
<path d="M563.67 489.51L559.09 711.34" stroke="black" stroke-width="1.5"/>
<path d="M559.09 711.34L587.66 819.36" stroke="black" stroke-width="1.5"/>
<path d="M587.66 819.36L700.86 701.98" stroke="black" stroke-width="1.5"/>
<path d="M587.66 819.36L587.38 986.71" stroke="black" stroke-width="1.5"/>
<path d="M587.38 986.71L585.5 1159.86" stroke="black" stroke-width="1.5"/>
<path d="M587.38 986.71L702.03 809.17" stroke="black" stroke-width="1.5"/>
<path d="M587.38 986.71L375.07 1007.6" stroke="black" stroke-width="1.5"/>
<path d="M585.5 1159.86L673.15 963.95" stroke="black" stroke-width="1.5"/>
<path d="M410.1 206.07L439.73 345.9" stroke="black" stroke-width="1.5"/>
<path d="M439.73 345.9L387.31 495.96" stroke="black" stroke-width="1.5"/>
<path d="M439.73 345.9L258.5 375.91" stroke="black" stroke-width="1.5"/>
<path d="M439.73 345.9L217.68 245.99" stroke="black" stroke-width="1.5"/>
<path d="M387.31 495.96L268.3 525.25" stroke="black" stroke-width="1.5"/>
<path d="M387.31 495.96L391.37 643.04" stroke="black" stroke-width="1.5"/>
<path d="M391.37 643.04L241.72 709.18" stroke="black" stroke-width="1.5"/>
<path d="M385.52 831.74L261.99 800.97" stroke="black" stroke-width="1.5"/>
<path d="M385.52 831.74L375.07 1007.6" stroke="black" stroke-width="1.5"/>
<path d="M385.52 831.74L391.37 643.04" stroke="black" stroke-width="1.5"/>
<path d="M385.52 831.74L241.72 709.18" stroke="black" stroke-width="1.5"/>
<path d="M385.52 831.74L587.66 819.36" stroke="black" stroke-width="1.5"/>
<path d="M375.07 1007.6L281.59 1008.58" stroke="black" stroke-width="1.5"/>
<path d="M375.07 1007.6L247.15 1088.81" stroke="black" stroke-width="1.5"/>
<path d="M375.07 1007.6L424.3 1157.98" stroke="black" stroke-width="1.5"/>
<path d="M424.3 1157.98L281.59 1008.58" stroke="black" stroke-width="1.5"/>
<path d="M424.3 1157.98L587.38 986.71" stroke="black" stroke-width="1.5"/>
<path d="M256.66 -49.24L112.77 44.49" stroke="black" stroke-width="1.5"/>
<path d="M256.66 -49.24L217.68 245.99" stroke="black" stroke-width="1.5"/>
<path d="M217.68 245.99L107.7 244.19" stroke="black" stroke-width="1.5"/>
<path d="M217.68 245.99L258.5 375.91" stroke="black" stroke-width="1.5"/>
<path d="M258.5 375.91L268.3 525.25" stroke="black" stroke-width="1.5"/>
<path d="M268.3 525.25L391.37 643.04" stroke="black" stroke-width="1.5"/>
<path d="M268.3 525.25L241.72 709.18" stroke="black" stroke-width="1.5"/>
<path d="M241.72 709.18L261.99 800.97" stroke="black" stroke-width="1.5"/>
<path d="M261.99 800.97L85.92 799.66" stroke="black" stroke-width="1.5"/>
<path d="M261.99 800.97L130.28 956.65" stroke="black" stroke-width="1.5"/>
<path d="M261.99 800.97L391.37 643.04" stroke="black" stroke-width="1.5"/>
<path d="M281.59 1008.58L247.15 1088.81" stroke="black" stroke-width="1.5"/>
<path d="M281.59 1008.58L130.28 956.65" stroke="black" stroke-width="1.5"/>
<path d="M281.59 1008.58L385.52 831.74" stroke="black" stroke-width="1.5"/>
<path d="M247.15 1088.81L130.28 956.65" stroke="black" stroke-width="1.5"/>
<path d="M107.7 244.19L-19.62 194.24" stroke="black" stroke-width="1.5"/>
<path d="M107.7 244.19L222.33 86.8999" stroke="black" stroke-width="1.5"/>
<path d="M85.9202 799.66L-30.1299 848.56" stroke="black" stroke-width="1.5"/>
<path d="M85.92 799.66L130.28 956.65" stroke="black" stroke-width="1.5"/>
<path d="M85.9202 799.66L-23.7399 671.19" stroke="black" stroke-width="1.5"/>
<path d="M85.92 799.66L241.72 709.18" stroke="black" stroke-width="1.5"/>
<path d="M130.28 956.65L85.3 1102.91" stroke="black" stroke-width="1.5"/>
<path d="M130.28 956.65L-57.54 965.79" stroke="black" stroke-width="1.5"/>
<path d="M-10.0601 -97.6301L112.77 44.4899" stroke="black" stroke-width="1.5"/>
<path d="M-30.13 848.56L130.28 956.65" stroke="black" stroke-width="1.5"/>
<path d="M-47.38 1136.93L130.28 956.65" stroke="black" stroke-width="1.5"/>
<path d="M1892.86 964.4C1879.05 964.4 1867.86 953.207 1867.86 939.4C1867.86 925.593 1879.05 914.4 1892.86 914.4C1906.67 914.4 1917.86 925.593 1917.86 939.4C1917.86 953.207 1906.67 964.4 1892.86 964.4Z" fill="url(#paint0_radial_410_2)"/>
<path d="M1627.2 1037.16C1613.39 1037.16 1602.2 1025.97 1602.2 1012.16C1602.2 998.353 1613.39 987.16 1627.2 987.16C1641.01 987.16 1652.2 998.353 1652.2 1012.16C1652.2 1025.97 1641.01 1037.16 1627.2 1037.16Z" fill="url(#paint1_radial_410_2)"/>
<path d="M1477.28 876.69C1463.47 876.69 1452.28 865.497 1452.28 851.69C1452.28 837.883 1463.47 826.69 1477.28 826.69C1491.09 826.69 1502.28 837.883 1502.28 851.69C1502.28 865.497 1491.09 876.69 1477.28 876.69Z" fill="url(#paint2_radial_410_2)"/>
<path d="M1282.36 829.43C1268.55 829.43 1257.36 818.237 1257.36 804.43C1257.36 790.623 1268.55 779.43 1282.36 779.43C1296.17 779.43 1307.36 790.623 1307.36 804.43C1307.36 818.237 1296.17 829.43 1282.36 829.43Z" fill="url(#paint3_radial_410_2)"/>
<path d="M1007.49 694.89C993.683 694.89 982.49 683.697 982.49 669.89C982.49 656.083 993.683 644.89 1007.49 644.89C1021.3 644.89 1032.49 656.083 1032.49 669.89C1032.49 683.697 1021.3 694.89 1007.49 694.89Z" fill="url(#paint4_radial_410_2)"/>
<path d="M862.04 676.51C848.233 676.51 837.04 665.317 837.04 651.51C837.04 637.703 848.233 626.51 862.04 626.51C875.847 626.51 887.04 637.703 887.04 651.51C887.04 665.317 875.847 676.51 862.04 676.51Z" fill="url(#paint5_radial_410_2)"/>
<path d="M860 831.12C846.193 831.12 835 819.927 835 806.12C835 792.313 846.193 781.12 860 781.12C873.807 781.12 885 792.313 885 806.12C885 819.927 873.807 831.12 860 831.12Z" fill="url(#paint6_radial_410_2)"/>
<path d="M860.53 990C846.723 990 835.53 978.807 835.53 965C835.53 951.193 846.723 940 860.53 940C874.337 940 885.53 951.193 885.53 965C885.53 978.807 874.337 990 860.53 990Z" fill="url(#paint7_radial_410_2)"/>
<path d="M673.15 988.95C659.343 988.95 648.15 977.757 648.15 963.95C648.15 950.143 659.343 938.95 673.15 938.95C686.957 938.95 698.15 950.143 698.15 963.95C698.15 977.757 686.957 988.95 673.15 988.95Z" fill="url(#paint8_radial_410_2)"/>
<path d="M222.33 111.9C208.523 111.9 197.33 100.707 197.33 86.8999C197.33 73.0928 208.523 61.8999 222.33 61.8999C236.137 61.8999 247.33 73.0928 247.33 86.8999C247.33 100.707 236.137 111.9 222.33 111.9Z" fill="url(#paint9_radial_410_2)"/>
<path d="M85.6501 409.18C71.843 409.18 60.6501 397.987 60.6501 384.18C60.6501 370.373 71.843 359.18 85.6501 359.18C99.4573 359.18 110.65 370.373 110.65 384.18C110.65 397.987 99.4573 409.18 85.6501 409.18Z" fill="url(#paint10_radial_410_2)"/>
<path d="M141.49 584.24C127.683 584.24 116.49 573.047 116.49 559.24C116.49 545.433 127.683 534.24 141.49 534.24C155.297 534.24 166.49 545.433 166.49 559.24C166.49 573.047 155.297 584.24 141.49 584.24Z" fill="url(#paint11_radial_410_2)"/>
<path d="M1744.38 840.04C1741.62 840.04 1739.38 837.801 1739.38 835.04C1739.38 832.279 1741.62 830.04 1744.38 830.04C1747.14 830.04 1749.38 832.279 1749.38 835.04C1749.38 837.801 1747.14 840.04 1744.38 840.04Z" fill="#8B9AD9"/>
<path d="M1757.4 994.75C1754.64 994.75 1752.4 992.511 1752.4 989.75C1752.4 986.989 1754.64 984.75 1757.4 984.75C1760.16 984.75 1762.4 986.989 1762.4 989.75C1762.4 992.511 1760.16 994.75 1757.4 994.75Z" fill="#8B9AD9"/>
<path d="M1322.65 978.75C1319.89 978.75 1317.65 976.511 1317.65 973.75C1317.65 970.989 1319.89 968.75 1322.65 968.75C1325.41 968.75 1327.65 970.989 1327.65 973.75C1327.65 976.511 1325.41 978.75 1322.65 978.75Z" fill="#8B9AD9"/>
<path d="M1145.87 856.48C1143.11 856.48 1140.87 854.241 1140.87 851.48C1140.87 848.719 1143.11 846.48 1145.87 846.48C1148.63 846.48 1150.87 848.719 1150.87 851.48C1150.87 854.241 1148.63 856.48 1145.87 856.48Z" fill="#8B9AD9"/>
<path d="M1128.48 947.75C1125.72 947.75 1123.48 945.511 1123.48 942.75C1123.48 939.989 1125.72 937.75 1128.48 937.75C1131.24 937.75 1133.48 939.989 1133.48 942.75C1133.48 945.511 1131.24 947.75 1128.48 947.75Z" fill="#8B9AD9"/>
<path d="M976.28 823.03C973.519 823.03 971.28 820.791 971.28 818.03C971.28 815.268 973.519 813.03 976.28 813.03C979.041 813.03 981.28 815.268 981.28 818.03C981.28 820.791 979.041 823.03 976.28 823.03Z" fill="#8B9AD9"/>
<path d="M975.57 948.51C972.809 948.51 970.57 946.271 970.57 943.51C970.57 940.748 972.809 938.51 975.57 938.51C978.331 938.51 980.57 940.748 980.57 943.51C980.57 946.271 978.331 948.51 975.57 948.51Z" fill="#8B9AD9"/>
<path d="M673.46 511.65C670.699 511.65 668.46 509.411 668.46 506.65C668.46 503.888 670.699 501.65 673.46 501.65C676.221 501.65 678.46 503.888 678.46 506.65C678.46 509.411 676.221 511.65 673.46 511.65Z" fill="#8B9AD9"/>
<path d="M700.86 706.98C698.099 706.98 695.86 704.741 695.86 701.98C695.86 699.219 698.099 696.98 700.86 696.98C703.622 696.98 705.86 699.219 705.86 701.98C705.86 704.741 703.622 706.98 700.86 706.98Z" fill="#8B9AD9"/>
<path d="M702.03 814.17C699.269 814.17 697.03 811.931 697.03 809.17C697.03 806.408 699.269 804.17 702.03 804.17C704.791 804.17 707.03 806.408 707.03 809.17C707.03 811.931 704.791 814.17 702.03 814.17Z" fill="#8B9AD9"/>
<path d="M532.99 401.68C530.229 401.68 527.99 399.441 527.99 396.68C527.99 393.919 530.229 391.68 532.99 391.68C535.751 391.68 537.99 393.919 537.99 396.68C537.99 399.441 535.751 401.68 532.99 401.68Z" fill="#8B9AD9"/>
<path d="M563.67 494.51C560.909 494.51 558.67 492.271 558.67 489.51C558.67 486.748 560.909 484.51 563.67 484.51C566.432 484.51 568.67 486.748 568.67 489.51C568.67 492.271 566.432 494.51 563.67 494.51Z" fill="#8B9AD9"/>
<path d="M559.09 716.34C556.329 716.34 554.09 714.101 554.09 711.34C554.09 708.578 556.329 706.34 559.09 706.34C561.852 706.34 564.09 708.578 564.09 711.34C564.09 714.101 561.852 716.34 559.09 716.34Z" fill="#8B9AD9"/>
<path d="M587.66 824.36C584.899 824.36 582.66 822.121 582.66 819.36C582.66 816.598 584.899 814.36 587.66 814.36C590.422 814.36 592.66 816.598 592.66 819.36C592.66 822.121 590.422 824.36 587.66 824.36Z" fill="#8B9AD9"/>
<path d="M587.38 991.71C584.619 991.71 582.38 989.471 582.38 986.71C582.38 983.949 584.619 981.71 587.38 981.71C590.142 981.71 592.38 983.949 592.38 986.71C592.38 989.471 590.142 991.71 587.38 991.71Z" fill="#8B9AD9"/>
<path d="M410.1 211.07C407.339 211.07 405.1 208.831 405.1 206.07C405.1 203.308 407.339 201.07 410.1 201.07C412.862 201.07 415.1 203.308 415.1 206.07C415.1 208.831 412.862 211.07 410.1 211.07Z" fill="#8B9AD9"/>
<path d="M439.73 350.9C436.969 350.9 434.73 348.661 434.73 345.9C434.73 343.138 436.969 340.9 439.73 340.9C442.491 340.9 444.73 343.138 444.73 345.9C444.73 348.661 442.491 350.9 439.73 350.9Z" fill="#8B9AD9"/>
<path d="M387.31 500.96C384.549 500.96 382.31 498.721 382.31 495.96C382.31 493.199 384.549 490.96 387.31 490.96C390.071 490.96 392.31 493.199 392.31 495.96C392.31 498.721 390.071 500.96 387.31 500.96Z" fill="#8B9AD9"/>
<path d="M391.37 648.04C388.609 648.04 386.37 645.801 386.37 643.04C386.37 640.279 388.609 638.04 391.37 638.04C394.132 638.04 396.37 640.279 396.37 643.04C396.37 645.801 394.132 648.04 391.37 648.04Z" fill="#8B9AD9"/>
<path d="M385.52 836.74C382.759 836.74 380.52 834.501 380.52 831.74C380.52 828.978 382.759 826.74 385.52 826.74C388.281 826.74 390.52 828.978 390.52 831.74C390.52 834.501 388.281 836.74 385.52 836.74Z" fill="#8B9AD9"/>
<path d="M375.07 1012.6C372.309 1012.6 370.07 1010.36 370.07 1007.6C370.07 1004.84 372.309 1002.6 375.07 1002.6C377.831 1002.6 380.07 1004.84 380.07 1007.6C380.07 1010.36 377.831 1012.6 375.07 1012.6Z" fill="#8B9AD9"/>
<path d="M217.68 250.99C214.919 250.99 212.68 248.751 212.68 245.99C212.68 243.229 214.919 240.99 217.68 240.99C220.442 240.99 222.68 243.229 222.68 245.99C222.68 248.751 220.442 250.99 217.68 250.99Z" fill="#8B9AD9"/>
<path d="M258.5 380.91C255.739 380.91 253.5 378.671 253.5 375.91C253.5 373.148 255.739 370.91 258.5 370.91C261.261 370.91 263.5 373.148 263.5 375.91C263.5 378.671 261.261 380.91 258.5 380.91Z" fill="#8B9AD9"/>
<path d="M268.3 530.25C265.539 530.25 263.3 528.011 263.3 525.25C263.3 522.489 265.539 520.25 268.3 520.25C271.061 520.25 273.3 522.489 273.3 525.25C273.3 528.011 271.061 530.25 268.3 530.25Z" fill="#8B9AD9"/>
<path d="M241.72 714.18C238.959 714.18 236.72 711.941 236.72 709.18C236.72 706.419 238.959 704.18 241.72 704.18C244.481 704.18 246.72 706.419 246.72 709.18C246.72 711.941 244.481 714.18 241.72 714.18Z" fill="#8B9AD9"/>
<path d="M261.99 805.97C259.229 805.97 256.99 803.731 256.99 800.97C256.99 798.208 259.229 795.97 261.99 795.97C264.751 795.97 266.99 798.208 266.99 800.97C266.99 803.731 264.751 805.97 261.99 805.97Z" fill="#8B9AD9"/>
<path d="M1957.4 753.6C1954.64 753.6 1952.4 751.361 1952.4 748.6C1952.4 745.838 1954.64 743.6 1957.4 743.6C1960.16 743.6 1962.4 745.838 1962.4 748.6C1962.4 751.361 1960.16 753.6 1957.4 753.6Z" fill="#8B9AD9"/>
<path d="M281.59 1013.58C278.829 1013.58 276.59 1011.34 276.59 1008.58C276.59 1005.82 278.829 1003.58 281.59 1003.58C284.352 1003.58 286.59 1005.82 286.59 1008.58C286.59 1011.34 284.352 1013.58 281.59 1013.58Z" fill="#8B9AD9"/>
<path d="M1977 961.21C1974.24 961.21 1972 958.972 1972 956.21C1972 953.449 1974.24 951.21 1977 951.21C1979.76 951.21 1982 953.449 1982 956.21C1982 958.972 1979.76 961.21 1977 961.21Z" fill="#8B9AD9"/>
<path d="M112.77 49.49C110.009 49.49 107.77 47.2514 107.77 44.49C107.77 41.7286 110.009 39.49 112.77 39.49C115.531 39.49 117.77 41.7286 117.77 44.49C117.77 47.2514 115.531 49.49 112.77 49.49Z" fill="#8B9AD9"/>
<path d="M107.7 249.19C104.939 249.19 102.7 246.951 102.7 244.19C102.7 241.429 104.939 239.19 107.7 239.19C110.461 239.19 112.7 241.429 112.7 244.19C112.7 246.951 110.461 249.19 107.7 249.19Z" fill="#8B9AD9"/>
<path d="M1803.11 196.82C1800.35 196.82 1798.11 194.581 1798.11 191.82C1798.11 189.059 1800.35 186.82 1803.11 186.82C1805.87 186.82 1808.11 189.059 1808.11 191.82C1808.11 194.581 1805.87 196.82 1803.11 196.82Z" fill="#8B9AD9"/>
<path d="M85.9202 804.66C83.1587 804.66 80.9202 802.421 80.9202 799.66C80.9202 796.898 83.1587 794.66 85.9202 794.66C88.6816 794.66 90.9202 796.898 90.9202 799.66C90.9202 802.421 88.6816 804.66 85.9202 804.66Z" fill="#8B9AD9"/>
<path d="M1781.33 752.29C1778.57 752.29 1776.33 750.051 1776.33 747.29C1776.33 744.529 1778.57 742.29 1781.33 742.29C1784.09 742.29 1786.33 744.529 1786.33 747.29C1786.33 750.051 1784.09 752.29 1781.33 752.29Z" fill="#8B9AD9"/>
<path d="M130.28 961.65C127.519 961.65 125.28 959.411 125.28 956.65C125.28 953.888 127.519 951.65 130.28 951.65C133.041 951.65 135.28 953.888 135.28 956.65C135.28 959.411 133.041 961.65 130.28 961.65Z" fill="#8B9AD9"/>
<path d="M1825.69 909.28C1822.93 909.28 1820.69 907.041 1820.69 904.28C1820.69 901.519 1822.93 899.28 1825.69 899.28C1828.45 899.28 1830.69 901.519 1830.69 904.28C1830.69 907.041 1828.45 909.28 1825.69 909.28Z" fill="#8B9AD9"/>
<path d="M1675.79 146.87C1673.03 146.87 1670.79 144.632 1670.79 141.87C1670.79 139.109 1673.03 136.87 1675.79 136.87C1678.55 136.87 1680.79 139.109 1680.79 141.87C1680.79 144.632 1678.55 146.87 1675.79 146.87Z" fill="#8B9AD9"/>
<path d="M1623.26 511.07C1620.5 511.07 1618.26 508.831 1618.26 506.07C1618.26 503.309 1620.5 501.07 1623.26 501.07C1626.02 501.07 1628.26 503.309 1628.26 506.07C1628.26 508.831 1626.02 511.07 1623.26 511.07Z" fill="#8B9AD9"/>
<path d="M1671.67 623.82C1668.91 623.82 1666.67 621.581 1666.67 618.82C1666.67 616.059 1668.91 613.82 1671.67 613.82C1674.43 613.82 1676.67 616.059 1676.67 618.82C1676.67 621.581 1674.43 623.82 1671.67 623.82Z" fill="#8B9AD9"/>
</g>
<defs>
<radialGradient id="paint0_radial_410_2" cx="0" cy="0" r="1" gradientUnits="userSpaceOnUse" gradientTransform="translate(1892.86 939.4) rotate(180) scale(25)">
<stop offset="0.1" stop-color="white"/>
<stop offset="0.2" stop-color="#1735B3"/>
<stop offset="1" stop-color="#1735B3" stop-opacity="0"/>
</radialGradient>
<radialGradient id="paint1_radial_410_2" cx="0" cy="0" r="1" gradientUnits="userSpaceOnUse" gradientTransform="translate(1627.2 1012.16) rotate(180) scale(25)">
<stop offset="0.1" stop-color="white"/>
<stop offset="0.2" stop-color="#1735B3"/>
<stop offset="1" stop-color="#1735B3" stop-opacity="0"/>
</radialGradient>
<radialGradient id="paint2_radial_410_2" cx="0" cy="0" r="1" gradientUnits="userSpaceOnUse" gradientTransform="translate(1477.28 851.69) rotate(180) scale(25)">
<stop offset="0.1" stop-color="white"/>
<stop offset="0.2" stop-color="#1735B3"/>
<stop offset="1" stop-color="#1735B3" stop-opacity="0"/>
</radialGradient>
<radialGradient id="paint3_radial_410_2" cx="0" cy="0" r="1" gradientUnits="userSpaceOnUse" gradientTransform="translate(1282.36 804.43) rotate(180) scale(25)">
<stop offset="0.1" stop-color="white"/>
<stop offset="0.2" stop-color="#1735B3"/>
<stop offset="1" stop-color="#1735B3" stop-opacity="0"/>
</radialGradient>
<radialGradient id="paint4_radial_410_2" cx="0" cy="0" r="1" gradientUnits="userSpaceOnUse" gradientTransform="translate(1007.49 669.89) rotate(180) scale(25)">
<stop offset="0.1" stop-color="white"/>
<stop offset="0.2" stop-color="#1735B3"/>
<stop offset="1" stop-color="#1735B3" stop-opacity="0"/>
</radialGradient>
<radialGradient id="paint5_radial_410_2" cx="0" cy="0" r="1" gradientUnits="userSpaceOnUse" gradientTransform="translate(862.04 651.51) rotate(180) scale(25)">
<stop offset="0.1" stop-color="white"/>
<stop offset="0.2" stop-color="#1735B3"/>
<stop offset="1" stop-color="#1735B3" stop-opacity="0"/>
</radialGradient>
<radialGradient id="paint6_radial_410_2" cx="0" cy="0" r="1" gradientUnits="userSpaceOnUse" gradientTransform="translate(860 806.12) rotate(180) scale(25)">
<stop offset="0.1" stop-color="white"/>
<stop offset="0.2" stop-color="#1735B3"/>
<stop offset="1" stop-color="#1735B3" stop-opacity="0"/>
</radialGradient>
<radialGradient id="paint7_radial_410_2" cx="0" cy="0" r="1" gradientUnits="userSpaceOnUse" gradientTransform="translate(860.53 965) rotate(180) scale(25)">
<stop offset="0.1" stop-color="white"/>
<stop offset="0.2" stop-color="#1735B3"/>
<stop offset="1" stop-color="#1735B3" stop-opacity="0"/>
</radialGradient>
<radialGradient id="paint8_radial_410_2" cx="0" cy="0" r="1" gradientUnits="userSpaceOnUse" gradientTransform="translate(673.15 963.95) rotate(180) scale(25)">
<stop offset="0.1" stop-color="white"/>
<stop offset="0.2" stop-color="#1735B3"/>
<stop offset="1" stop-color="#1735B3" stop-opacity="0"/>
</radialGradient>
<radialGradient id="paint9_radial_410_2" cx="0" cy="0" r="1" gradientUnits="userSpaceOnUse" gradientTransform="translate(222.33 86.8999) rotate(180) scale(25)">
<stop offset="0.1" stop-color="white"/>
<stop offset="0.2" stop-color="#1735B3"/>
<stop offset="1" stop-color="#1735B3" stop-opacity="0"/>
</radialGradient>
<radialGradient id="paint10_radial_410_2" cx="0" cy="0" r="1" gradientUnits="userSpaceOnUse" gradientTransform="translate(85.6501 384.18) rotate(180) scale(25)">
<stop offset="0.1" stop-color="white"/>
<stop offset="0.2" stop-color="#1735B3"/>
<stop offset="1" stop-color="#1735B3" stop-opacity="0"/>
</radialGradient>
<radialGradient id="paint11_radial_410_2" cx="0" cy="0" r="1" gradientUnits="userSpaceOnUse" gradientTransform="translate(141.49 559.24) rotate(180) scale(25)">
<stop offset="0.1" stop-color="white"/>
<stop offset="0.2" stop-color="#1735B3"/>
<stop offset="1" stop-color="#1735B3" stop-opacity="0"/>
</radialGradient>
<clipPath id="clip0_410_2">
<rect width="1980" height="1024" fill="white" transform="matrix(-1 0 0 1 1980 0)"/>
</clipPath>
</defs>
</svg>
